<?xml version="1.0" standalone="no"?>
<svg xmlns:xlink="http://www.w3.org/1999/xlink" id="wave" style="transform:rotate(0deg); transition: 0.3s" viewBox="0 0 1440 100" version="1.1" xmlns="http://www.w3.org/2000/svg"><defs><linearGradient id="sw-gradient-0" x1="0" x2="0" y1="1" y2="0"><stop stop-color="rgba(34, 34, 34, 1)" offset="0%"/><stop stop-color="rgba(34, 34, 34, 1)" offset="100%"/></linearGradient></defs><path style="transform:translate(0, 0px); opacity:1" fill="url(#sw-gradient-0)" d="M0,90L26.7,78.3C53.3,67,107,43,160,35C213.3,27,267,33,320,43.3C373.3,53,427,67,480,60C533.3,53,587,27,640,13.3C693.3,0,747,0,800,5C853.3,10,907,20,960,30C1013.3,40,1067,50,1120,51.7C1173.3,53,1227,47,1280,48.3C1333.3,50,1387,60,1440,61.7C1493.3,63,1547,57,1600,53.3C1653.3,50,1707,50,1760,46.7C1813.3,43,1867,37,1920,40C1973.3,43,2027,57,2080,51.7C2133.3,47,2187,23,2240,11.7C2293.3,0,2347,0,2400,1.7C2453.3,3,2507,7,2560,10C2613.3,13,2667,17,2720,25C2773.3,33,2827,47,2880,45C2933.3,43,2987,27,3040,26.7C3093.3,27,3147,43,3200,41.7C3253.3,40,3307,20,3360,13.3C3413.3,7,3467,13,3520,16.7C3573.3,20,3627,20,3680,31.7C3733.3,43,3787,67,3813,78.3L3840,90L3840,100L3813.3,100C3786.7,100,3733,100,3680,100C3626.7,100,3573,100,3520,100C3466.7,100,3413,100,3360,100C3306.7,100,3253,100,3200,100C3146.7,100,3093,100,3040,100C2986.7,100,2933,100,2880,100C2826.7,100,2773,100,2720,100C2666.7,100,2613,100,2560,100C2506.7,100,2453,100,2400,100C2346.7,100,2293,100,2240,100C2186.7,100,2133,100,2080,100C2026.7,100,1973,100,1920,100C1866.7,100,1813,100,1760,100C1706.7,100,1653,100,1600,100C1546.7,100,1493,100,1440,100C1386.7,100,1333,100,1280,100C1226.7,100,1173,100,1120,100C1066.7,100,1013,100,960,100C906.7,100,853,100,800,100C746.7,100,693,100,640,100C586.7,100,533,100,480,100C426.7,100,373,100,320,100C266.7,100,213,100,160,100C106.7,100,53,100,27,100L0,100Z"/></svg>