<?xml version="1.0" standalone="no"?>
<svg xmlns:xlink="http://www.w3.org/1999/xlink" id="wave" style="transform:rotate(0deg); transition: 0.3s" viewBox="0 0 1440 100" version="1.1" xmlns="http://www.w3.org/2000/svg"><defs><linearGradient id="sw-gradient-0" x1="0" x2="0" y1="1" y2="0"><stop stop-color="rgba(34, 34, 34, 1)" offset="0%"/><stop stop-color="rgba(200.642, 200.642, 200.642, 1)" offset="100%"/></linearGradient></defs><path style="transform:translate(0, 0px); opacity:1" fill="url(#sw-gradient-0)" d="M0,50L15,56.7C30,63,60,77,90,73.3C120,70,150,50,180,35C210,20,240,10,270,15C300,20,330,40,360,43.3C390,47,420,33,450,26.7C480,20,510,20,540,26.7C570,33,600,47,630,46.7C660,47,690,33,720,31.7C750,30,780,40,810,45C840,50,870,50,900,45C930,40,960,30,990,25C1020,20,1050,20,1080,20C1110,20,1140,20,1170,20C1200,20,1230,20,1260,26.7C1290,33,1320,47,1350,58.3C1380,70,1410,80,1440,76.7C1470,73,1500,57,1530,48.3C1560,40,1590,40,1620,33.3C1650,27,1680,13,1710,11.7C1740,10,1770,20,1800,31.7C1830,43,1860,57,1890,55C1920,53,1950,37,1980,31.7C2010,27,2040,33,2070,31.7C2100,30,2130,20,2145,15L2160,10L2160,100L2145,100C2130,100,2100,100,2070,100C2040,100,2010,100,1980,100C1950,100,1920,100,1890,100C1860,100,1830,100,1800,100C1770,100,1740,100,1710,100C1680,100,1650,100,1620,100C1590,100,1560,100,1530,100C1500,100,1470,100,1440,100C1410,100,1380,100,1350,100C1320,100,1290,100,1260,100C1230,100,1200,100,1170,100C1140,100,1110,100,1080,100C1050,100,1020,100,990,100C960,100,930,100,900,100C870,100,840,100,810,100C780,100,750,100,720,100C690,100,660,100,630,100C600,100,570,100,540,100C510,100,480,100,450,100C420,100,390,100,360,100C330,100,300,100,270,100C240,100,210,100,180,100C150,100,120,100,90,100C60,100,30,100,15,100L0,100Z"/></svg>